<svg width="512" height="512" viewBox="0 0 512 512" fill="none" xmlns="http://www.w3.org/2000/svg">
  <defs>
    <radialGradient id="bg" cx="0" cy="0" r="1" gradientUnits="userSpaceOnUse" gradientTransform="translate(150 120) rotate(45) scale(420)">
      <stop stop-color="#CFFAFE"/>
      <stop offset="0.45" stop-color="#38BDF8"/>
      <stop offset="1" stop-color="#1E40AF"/>
    </radialGradient>
    <linearGradient id="fish" x1="88" y1="150" x2="430" y2="370" gradientUnits="userSpaceOnUse">
      <stop stop-color="#FFFFFF" stop-opacity="0.95"/>
      <stop offset="1" stop-color="#BFDBFE" stop-opacity="0.9"/>
    </linearGradient>
  </defs>
  <rect width="512" height="512" rx="120" fill="url(#bg)"/>
  <path d="M84 258c38-57 86-83 150-92 40-6 92 1 133 16l61-45 10 5c-7 27-18 49-33 66 15 17 26 39 33 65l-10 5-61-45c-41 15-93 22-133 16-64-9-112-35-150-91z" fill="url(#fish)"/>
  <circle cx="340" cy="230" r="9" fill="#0F172A"/>
  <circle cx="150" cy="118" r="8" fill="#FEF3C7" fill-opacity="0.9"/>
  <circle cx="204" cy="88" r="6" fill="#E9D5FF" fill-opacity="0.85"/>
  <circle cx="392" cy="96" r="7" fill="#FDE68A" fill-opacity="0.9"/>
  <circle cx="424" cy="158" r="5" fill="#BAE6FD" fill-opacity="0.9"/>
  <text x="58" y="460" fill="white" font-size="54" font-family="sans-serif" font-weight="700">もちめだか</text>
</svg>